<mxfile host="app.diagrams.net" modified="2022-06-07T03:17:34.992Z" agent="5.0 (Windows NT 10.0; Win64; x64) AppleWebKit/537.36 (KHTML, like Gecko) Chrome/99.0.4844.82 Safari/537.36" etag="_lrYDgHVZtpY1tmDdTO9" version="18.2.0" type="github">
  <diagram id="8YnZeBC7hz3DKTZKV3SI" name="Page-1">
    <mxGraphModel dx="1662" dy="762" grid="1" gridSize="10" guides="1" tooltips="1" connect="1" arrows="1" fold="1" page="1" pageScale="1" pageWidth="1600" pageHeight="900" math="0" shadow="0">
      <root>
        <mxCell id="0" />
        <mxCell id="1" parent="0" />
        <mxCell id="0U3BDuoGzoeypf5nkwV5-1" value="" style="ellipse;whiteSpace=wrap;html=1;rounded=0;shadow=0;comic=0;strokeWidth=1;fontFamily=Verdana;fontSize=14;strokeColor=none;fillColor=#0069D1;" vertex="1" parent="1">
          <mxGeometry x="600" y="70" width="500" height="500" as="geometry" />
        </mxCell>
        <mxCell id="0U3BDuoGzoeypf5nkwV5-2" value="Enterprise&lt;div&gt;Business&lt;/div&gt;&lt;div&gt;Model&lt;/div&gt;" style="ellipse;whiteSpace=wrap;html=1;rounded=0;shadow=0;comic=0;strokeWidth=1;fontFamily=Verdana;fontSize=22;strokeColor=none;fillColor=#ffffff;fontColor=#0069D1;fontStyle=1" vertex="1" parent="1">
          <mxGeometry x="720" y="190" width="260" height="260" as="geometry" />
        </mxCell>
        <mxCell id="0U3BDuoGzoeypf5nkwV5-3" value="Community" style="shadow=0;dashed=0;html=1;strokeColor=none;fillColor=#ffffff;labelPosition=center;verticalLabelPosition=bottom;verticalAlign=top;shape=mxgraph.office.users.users;rounded=0;comic=0;fontFamily=Verdana;fontSize=14;fontColor=#FFFFFF;" vertex="1" parent="1">
          <mxGeometry x="670" y="400" width="46" height="50" as="geometry" />
        </mxCell>
        <mxCell id="0U3BDuoGzoeypf5nkwV5-4" value="Customer&lt;div&gt;Service&lt;/div&gt;" style="shadow=0;dashed=0;html=1;strokeColor=none;fillColor=#ffffff;labelPosition=center;verticalLabelPosition=bottom;verticalAlign=top;shape=mxgraph.office.users.call_center_agent;rounded=0;comic=0;fontFamily=Verdana;fontSize=14;fontColor=#FFFFFF;" vertex="1" parent="1">
          <mxGeometry x="996" y="373" width="46" height="55" as="geometry" />
        </mxCell>
        <mxCell id="0U3BDuoGzoeypf5nkwV5-5" value="Response&lt;div&gt;Group&lt;/div&gt;" style="shadow=0;dashed=0;html=1;strokeColor=none;fillColor=#ffffff;labelPosition=center;verticalLabelPosition=bottom;verticalAlign=top;shape=mxgraph.office.users.response_group;rounded=0;comic=0;fontFamily=Verdana;fontSize=14;fontColor=#FFFFFF;" vertex="1" parent="1">
          <mxGeometry x="670" y="163" width="58" height="54" as="geometry" />
        </mxCell>
        <mxCell id="0U3BDuoGzoeypf5nkwV5-6" value="Central&lt;div&gt;Management&lt;/div&gt;&lt;div&gt;Service&lt;/div&gt;" style="shadow=0;dashed=0;html=1;strokeColor=none;fillColor=#ffffff;labelPosition=center;verticalLabelPosition=bottom;verticalAlign=top;shape=mxgraph.office.services.central_management_service;rounded=0;comic=0;fontFamily=Verdana;fontSize=14;fontColor=#FFFFFF;" vertex="1" parent="1">
          <mxGeometry x="637" y="273" width="51" height="54" as="geometry" />
        </mxCell>
        <mxCell id="0U3BDuoGzoeypf5nkwV5-7" value="Digital&lt;div&gt;Development&lt;/div&gt;" style="shadow=0;dashed=0;html=1;strokeColor=none;fillColor=#ffffff;labelPosition=center;verticalLabelPosition=bottom;verticalAlign=top;shape=mxgraph.office.servers.on_premises_server;rounded=0;comic=0;fontFamily=Verdana;fontSize=14;fontColor=#FFFFFF;" vertex="1" parent="1">
          <mxGeometry x="1020" y="242" width="44" height="58" as="geometry" />
        </mxCell>
        <mxCell id="0U3BDuoGzoeypf5nkwV5-8" value="Technology&lt;div&gt;Certificates&lt;/div&gt;" style="shadow=0;dashed=0;html=1;strokeColor=none;fillColor=#ffffff;labelPosition=center;verticalLabelPosition=bottom;verticalAlign=top;shape=mxgraph.office.security.token_service;rounded=0;comic=0;fontFamily=Verdana;fontSize=14;fontColor=#FFFFFF;" vertex="1" parent="1">
          <mxGeometry x="770" y="452" width="60" height="56" as="geometry" />
        </mxCell>
        <mxCell id="0U3BDuoGzoeypf5nkwV5-9" value="Infrastructure" style="shadow=0;dashed=0;html=1;strokeColor=none;fillColor=#ffffff;labelPosition=center;verticalLabelPosition=bottom;verticalAlign=top;shape=mxgraph.office.concepts.on_premises;rounded=0;comic=0;fontFamily=Verdana;fontSize=14;fontColor=#FFFFFF;" vertex="1" parent="1">
          <mxGeometry x="913" y="450" width="34" height="55" as="geometry" />
        </mxCell>
        <mxCell id="0U3BDuoGzoeypf5nkwV5-10" value="Global&lt;div&gt;Partnerships&lt;/div&gt;" style="shadow=0;dashed=0;html=1;strokeColor=none;fillColor=#ffffff;labelPosition=center;verticalLabelPosition=bottom;verticalAlign=top;shape=mxgraph.office.concepts.globe_internet;rounded=0;comic=0;fontFamily=Verdana;fontSize=14;fontColor=#FFFFFF;" vertex="1" parent="1">
          <mxGeometry x="761" y="100" width="49" height="49" as="geometry" />
        </mxCell>
        <mxCell id="0U3BDuoGzoeypf5nkwV5-11" value="Environmental&lt;div&gt;Awareness&lt;/div&gt;" style="shadow=0;dashed=0;html=1;strokeColor=none;shape=mxgraph.mscae.general.continuous_cycle;fillColor=#ffffff;rounded=0;comic=0;fontFamily=Verdana;fontSize=14;fontColor=#FFFFFF;verticalAlign=top;labelPosition=center;verticalLabelPosition=bottom;align=center;" vertex="1" parent="1">
          <mxGeometry x="870" y="95" width="48" height="50" as="geometry" />
        </mxCell>
        <mxCell id="0U3BDuoGzoeypf5nkwV5-12" value="Finance" style="shape=mxgraph.signs.travel.euro;html=1;fillColor=#ffffff;strokeColor=none;verticalLabelPosition=bottom;verticalAlign=top;align=center;rounded=0;shadow=0;dashed=0;comic=0;fontFamily=Verdana;fontSize=14;fontColor=#FFFFFF;" vertex="1" parent="1">
          <mxGeometry x="957" y="149" width="45" height="51" as="geometry" />
        </mxCell>
        <mxCell id="0U3BDuoGzoeypf5nkwV5-13" value="" style="whiteSpace=wrap;html=1;rounded=0;shadow=0;dashed=0;strokeWidth=1;fontFamily=Tahoma;fontSize=10;fontColor=#FFFFFF;strokeColor=none;fillColor=#7FB61A;gradientColor=#1B622A;gradientDirection=west;" vertex="1" parent="1">
          <mxGeometry x="1300" y="880" width="240" height="180" as="geometry" />
        </mxCell>
        <mxCell id="0U3BDuoGzoeypf5nkwV5-14" value="" style="verticalLabelPosition=bottom;verticalAlign=top;html=1;strokeWidth=1;shape=mxgraph.basic.orthogonal_triangle;rounded=0;shadow=0;dashed=0;fontFamily=Tahoma;fontSize=10;fontColor=#FFFFFF;flipV=1;fillColor=#000000;strokeColor=none;opacity=50;" vertex="1" parent="1">
          <mxGeometry x="1300" y="1020" width="140" height="40" as="geometry" />
        </mxCell>
        <mxCell id="0U3BDuoGzoeypf5nkwV5-15" value="" style="whiteSpace=wrap;html=1;rounded=0;shadow=0;dashed=0;strokeWidth=1;fontFamily=Tahoma;fontSize=10;fontColor=#FFFFFF;strokeColor=none;fillColor=#5398DB;gradientColor=#1247B9;gradientDirection=west;" vertex="1" parent="1">
          <mxGeometry x="1310" y="1140" width="240" height="180" as="geometry" />
        </mxCell>
        <mxCell id="0U3BDuoGzoeypf5nkwV5-16" value="" style="verticalLabelPosition=bottom;verticalAlign=top;html=1;strokeWidth=1;shape=mxgraph.basic.orthogonal_triangle;rounded=0;shadow=0;dashed=0;fontFamily=Tahoma;fontSize=10;fontColor=#FFFFFF;flipV=1;fillColor=#000000;strokeColor=none;opacity=50;" vertex="1" parent="1">
          <mxGeometry x="1310" y="1280" width="140" height="40" as="geometry" />
        </mxCell>
        <mxCell id="0U3BDuoGzoeypf5nkwV5-17" value="" style="whiteSpace=wrap;html=1;rounded=0;shadow=0;dashed=0;strokeWidth=1;fontFamily=Tahoma;fontSize=10;fontColor=#FFFFFF;strokeColor=none;fillColor=#8D029D;gradientColor=#65009E;gradientDirection=west;" vertex="1" parent="1">
          <mxGeometry x="1310" y="1390" width="240" height="180" as="geometry" />
        </mxCell>
        <mxCell id="0U3BDuoGzoeypf5nkwV5-18" value="" style="verticalLabelPosition=bottom;verticalAlign=top;html=1;strokeWidth=1;shape=mxgraph.basic.orthogonal_triangle;rounded=0;shadow=0;dashed=0;fontFamily=Tahoma;fontSize=10;fontColor=#FFFFFF;flipV=1;fillColor=#000000;strokeColor=none;opacity=50;" vertex="1" parent="1">
          <mxGeometry x="1310" y="1530" width="140" height="40" as="geometry" />
        </mxCell>
        <mxCell id="0U3BDuoGzoeypf5nkwV5-19" value="" style="whiteSpace=wrap;html=1;rounded=0;shadow=0;dashed=0;strokeWidth=1;fontFamily=Tahoma;fontSize=10;fontColor=#FFFFFF;strokeColor=none;fillColor=#F19001;gradientColor=#C23603;gradientDirection=west;" vertex="1" parent="1">
          <mxGeometry x="1310" y="1640" width="240" height="180" as="geometry" />
        </mxCell>
        <mxCell id="0U3BDuoGzoeypf5nkwV5-20" value="" style="verticalLabelPosition=bottom;verticalAlign=top;html=1;strokeWidth=1;shape=mxgraph.basic.orthogonal_triangle;rounded=0;shadow=0;dashed=0;fontFamily=Tahoma;fontSize=10;fontColor=#FFFFFF;flipV=1;fillColor=#000000;strokeColor=none;opacity=50;" vertex="1" parent="1">
          <mxGeometry x="1310" y="1780" width="140" height="40" as="geometry" />
        </mxCell>
        <mxCell id="0U3BDuoGzoeypf5nkwV5-21" value="" style="whiteSpace=wrap;html=1;rounded=0;shadow=0;dashed=0;strokeWidth=1;fontFamily=Tahoma;fontSize=10;fontColor=#FFFFFF;strokeColor=none;fillColor=#EA0001;gradientColor=#AD0002;gradientDirection=west;" vertex="1" parent="1">
          <mxGeometry x="1310" y="1890" width="240" height="180" as="geometry" />
        </mxCell>
        <mxCell id="0U3BDuoGzoeypf5nkwV5-22" value="" style="verticalLabelPosition=bottom;verticalAlign=top;html=1;strokeWidth=1;shape=mxgraph.basic.orthogonal_triangle;rounded=0;shadow=0;dashed=0;fontFamily=Tahoma;fontSize=10;fontColor=#FFFFFF;flipV=1;fillColor=#000000;strokeColor=none;opacity=50;" vertex="1" parent="1">
          <mxGeometry x="1310" y="2030" width="140" height="40" as="geometry" />
        </mxCell>
        <mxCell id="0U3BDuoGzoeypf5nkwV5-23" value="MAIN TITLE" style="whiteSpace=wrap;html=1;rounded=0;shadow=0;dashed=0;strokeWidth=1;fillColor=#E6E6E6;fontFamily=Verdana;fontSize=70;strokeColor=none;verticalAlign=top;spacingTop=10;" vertex="1" parent="1">
          <mxGeometry y="700" width="1360" height="1410" as="geometry" />
        </mxCell>
        <mxCell id="0U3BDuoGzoeypf5nkwV5-24" value="" style="html=1;shadow=0;dashed=0;align=center;verticalAlign=middle;shape=mxgraph.arrows2.arrow;dy=0;dx=0;notch=30;rounded=0;strokeColor=none;strokeWidth=1;fillColor=#7FB61A;fontFamily=Tahoma;fontSize=10;fontColor=#FFFFFF;gradientColor=#1B622A;gradientDirection=east;" vertex="1" parent="1">
          <mxGeometry x="230" y="840" width="1210" height="180" as="geometry" />
        </mxCell>
        <mxCell id="0U3BDuoGzoeypf5nkwV5-25" value="" style="html=1;shadow=0;dashed=0;align=center;verticalAlign=middle;shape=mxgraph.arrows2.arrow;dy=0;dx=0;notch=30;rounded=0;strokeColor=none;strokeWidth=1;fillColor=#5398DB;fontFamily=Tahoma;fontSize=10;fontColor=#FFFFFF;gradientColor=#1247B9;gradientDirection=east;" vertex="1" parent="1">
          <mxGeometry x="240" y="1100" width="1210" height="180" as="geometry" />
        </mxCell>
        <mxCell id="0U3BDuoGzoeypf5nkwV5-26" value="" style="html=1;shadow=0;dashed=0;align=center;verticalAlign=middle;shape=mxgraph.arrows2.arrow;dy=0;dx=0;notch=30;rounded=0;strokeColor=none;strokeWidth=1;fillColor=#8D029D;fontFamily=Tahoma;fontSize=10;fontColor=#FFFFFF;gradientColor=#65009E;gradientDirection=east;" vertex="1" parent="1">
          <mxGeometry x="240" y="1350" width="1210" height="180" as="geometry" />
        </mxCell>
        <mxCell id="0U3BDuoGzoeypf5nkwV5-27" value="" style="html=1;shadow=0;dashed=0;align=center;verticalAlign=middle;shape=mxgraph.arrows2.arrow;dy=0;dx=0;notch=30;rounded=0;strokeColor=none;strokeWidth=1;fillColor=#F19001;fontFamily=Tahoma;fontSize=10;fontColor=#FFFFFF;gradientColor=#C23603;gradientDirection=east;" vertex="1" parent="1">
          <mxGeometry x="240" y="1600" width="1210" height="180" as="geometry" />
        </mxCell>
        <mxCell id="0U3BDuoGzoeypf5nkwV5-28" value="" style="html=1;shadow=0;dashed=0;align=center;verticalAlign=middle;shape=mxgraph.arrows2.arrow;dy=0;dx=0;notch=30;rounded=0;strokeColor=none;strokeWidth=1;fillColor=#EA0001;fontFamily=Tahoma;fontSize=10;fontColor=#FFFFFF;gradientColor=#AD0002;gradientDirection=east;" vertex="1" parent="1">
          <mxGeometry x="240" y="1850" width="1210" height="180" as="geometry" />
        </mxCell>
        <mxCell id="0U3BDuoGzoeypf5nkwV5-29" value="Additional text" style="text;html=1;strokeColor=none;fillColor=none;align=center;verticalAlign=middle;whiteSpace=wrap;rounded=0;shadow=0;dashed=0;fontFamily=Verdana;fontSize=70;horizontal=0;" vertex="1" parent="1">
          <mxGeometry x="50" y="840" width="130" height="1190" as="geometry" />
        </mxCell>
        <mxCell id="0U3BDuoGzoeypf5nkwV5-30" value="1" style="text;html=1;strokeColor=none;fillColor=none;align=right;verticalAlign=middle;whiteSpace=wrap;rounded=0;shadow=0;dashed=0;fontFamily=Helvetica;fontSize=150;fontColor=#FFFFFF;" vertex="1" parent="1">
          <mxGeometry x="260" y="840" width="200" height="180" as="geometry" />
        </mxCell>
        <mxCell id="0U3BDuoGzoeypf5nkwV5-31" value="2" style="text;html=1;strokeColor=none;fillColor=none;align=right;verticalAlign=middle;whiteSpace=wrap;rounded=0;shadow=0;dashed=0;fontFamily=Helvetica;fontSize=150;fontColor=#FFFFFF;" vertex="1" parent="1">
          <mxGeometry x="270" y="1100" width="200" height="180" as="geometry" />
        </mxCell>
        <mxCell id="0U3BDuoGzoeypf5nkwV5-32" value="3" style="text;html=1;strokeColor=none;fillColor=none;align=right;verticalAlign=middle;whiteSpace=wrap;rounded=0;shadow=0;dashed=0;fontFamily=Helvetica;fontSize=150;fontColor=#FFFFFF;" vertex="1" parent="1">
          <mxGeometry x="270" y="1350" width="200" height="180" as="geometry" />
        </mxCell>
        <mxCell id="0U3BDuoGzoeypf5nkwV5-33" value="4" style="text;html=1;strokeColor=none;fillColor=none;align=right;verticalAlign=middle;whiteSpace=wrap;rounded=0;shadow=0;dashed=0;fontFamily=Helvetica;fontSize=150;fontColor=#FFFFFF;" vertex="1" parent="1">
          <mxGeometry x="270" y="1600" width="200" height="180" as="geometry" />
        </mxCell>
        <mxCell id="0U3BDuoGzoeypf5nkwV5-34" value="5" style="text;html=1;strokeColor=none;fillColor=none;align=right;verticalAlign=middle;whiteSpace=wrap;rounded=0;shadow=0;dashed=0;fontFamily=Helvetica;fontSize=150;fontColor=#FFFFFF;" vertex="1" parent="1">
          <mxGeometry x="270" y="1850" width="200" height="180" as="geometry" />
        </mxCell>
        <mxCell id="0U3BDuoGzoeypf5nkwV5-35" value="" style="line;strokeWidth=4;direction=south;html=1;rounded=0;shadow=0;dashed=0;fillColor=none;gradientColor=#AD0002;fontFamily=Helvetica;fontSize=150;fontColor=#FFFFFF;align=right;strokeColor=#FFFFFF;" vertex="1" parent="1">
          <mxGeometry x="480" y="850" width="10" height="160" as="geometry" />
        </mxCell>
        <mxCell id="0U3BDuoGzoeypf5nkwV5-36" value="" style="line;strokeWidth=4;direction=south;html=1;rounded=0;shadow=0;dashed=0;fillColor=none;gradientColor=#AD0002;fontFamily=Helvetica;fontSize=150;fontColor=#FFFFFF;align=right;strokeColor=#FFFFFF;" vertex="1" parent="1">
          <mxGeometry x="480" y="1110" width="10" height="160" as="geometry" />
        </mxCell>
        <mxCell id="0U3BDuoGzoeypf5nkwV5-37" value="" style="line;strokeWidth=4;direction=south;html=1;rounded=0;shadow=0;dashed=0;fillColor=none;gradientColor=#AD0002;fontFamily=Helvetica;fontSize=150;fontColor=#FFFFFF;align=right;strokeColor=#FFFFFF;" vertex="1" parent="1">
          <mxGeometry x="480" y="1360" width="10" height="160" as="geometry" />
        </mxCell>
        <mxCell id="0U3BDuoGzoeypf5nkwV5-38" value="" style="line;strokeWidth=4;direction=south;html=1;rounded=0;shadow=0;dashed=0;fillColor=none;gradientColor=#AD0002;fontFamily=Helvetica;fontSize=150;fontColor=#FFFFFF;align=right;strokeColor=#FFFFFF;" vertex="1" parent="1">
          <mxGeometry x="480" y="1610" width="10" height="160" as="geometry" />
        </mxCell>
        <mxCell id="0U3BDuoGzoeypf5nkwV5-39" value="" style="line;strokeWidth=4;direction=south;html=1;rounded=0;shadow=0;dashed=0;fillColor=none;gradientColor=#AD0002;fontFamily=Helvetica;fontSize=150;fontColor=#FFFFFF;align=right;strokeColor=#FFFFFF;" vertex="1" parent="1">
          <mxGeometry x="480" y="1860" width="10" height="160" as="geometry" />
        </mxCell>
        <mxCell id="0U3BDuoGzoeypf5nkwV5-40" value="&lt;h1&gt;Heading&lt;/h1&gt;&lt;p&gt;L&lt;span&gt;orem ipsum dolor sit amet, consectetur adipisicing elit, sed do eiusmod tempor incididunt ut labore et dolore magna aliqua. Ut enim ad minim veniam, quis nostrud exercitation ullamco laboris nisi ut aliquip ex ea commodo consequat. Duis aute irure dolor in reprehenderit in voluptate velit esse cillum dolore eu fugiat nulla pariatur. Excepteur sint occaecat cupidatat non proident, sunt in culpa qui officia deserunt mollit anim id est laborum.&lt;/span&gt;&lt;/p&gt;" style="text;html=1;strokeColor=none;fillColor=none;spacing=5;spacingTop=-20;whiteSpace=wrap;overflow=hidden;rounded=0;shadow=0;dashed=0;fontFamily=Helvetica;fontSize=12;fontColor=#FFFFFF;align=left;" vertex="1" parent="1">
          <mxGeometry x="520" y="860" width="670" height="140" as="geometry" />
        </mxCell>
        <mxCell id="0U3BDuoGzoeypf5nkwV5-41" value="&lt;h1&gt;Heading&lt;/h1&gt;&lt;p&gt;L&lt;span&gt;orem ipsum dolor sit amet, consectetur adipisicing elit, sed do eiusmod tempor incididunt ut labore et dolore magna aliqua. Ut enim ad minim veniam, quis nostrud exercitation ullamco laboris nisi ut aliquip ex ea commodo consequat. Duis aute irure dolor in reprehenderit in voluptate velit esse cillum dolore eu fugiat nulla pariatur. Excepteur sint occaecat cupidatat non proident, sunt in culpa qui officia deserunt mollit anim id est laborum.&lt;/span&gt;&lt;/p&gt;" style="text;html=1;strokeColor=none;fillColor=none;spacing=5;spacingTop=-20;whiteSpace=wrap;overflow=hidden;rounded=0;shadow=0;dashed=0;fontFamily=Helvetica;fontSize=12;fontColor=#FFFFFF;align=left;" vertex="1" parent="1">
          <mxGeometry x="520" y="1120" width="670" height="140" as="geometry" />
        </mxCell>
        <mxCell id="0U3BDuoGzoeypf5nkwV5-42" value="&lt;h1&gt;Heading&lt;/h1&gt;&lt;p&gt;L&lt;span&gt;orem ipsum dolor sit amet, consectetur adipisicing elit, sed do eiusmod tempor incididunt ut labore et dolore magna aliqua. Ut enim ad minim veniam, quis nostrud exercitation ullamco laboris nisi ut aliquip ex ea commodo consequat. Duis aute irure dolor in reprehenderit in voluptate velit esse cillum dolore eu fugiat nulla pariatur. Excepteur sint occaecat cupidatat non proident, sunt in culpa qui officia deserunt mollit anim id est laborum.&lt;/span&gt;&lt;/p&gt;" style="text;html=1;strokeColor=none;fillColor=none;spacing=5;spacingTop=-20;whiteSpace=wrap;overflow=hidden;rounded=0;shadow=0;dashed=0;fontFamily=Helvetica;fontSize=12;fontColor=#FFFFFF;align=left;" vertex="1" parent="1">
          <mxGeometry x="520" y="1370" width="670" height="140" as="geometry" />
        </mxCell>
        <mxCell id="0U3BDuoGzoeypf5nkwV5-43" value="&lt;h1&gt;Heading&lt;/h1&gt;&lt;p&gt;L&lt;span&gt;orem ipsum dolor sit amet, consectetur adipisicing elit, sed do eiusmod tempor incididunt ut labore et dolore magna aliqua. Ut enim ad minim veniam, quis nostrud exercitation ullamco laboris nisi ut aliquip ex ea commodo consequat. Duis aute irure dolor in reprehenderit in voluptate velit esse cillum dolore eu fugiat nulla pariatur. Excepteur sint occaecat cupidatat non proident, sunt in culpa qui officia deserunt mollit anim id est laborum.&lt;/span&gt;&lt;/p&gt;" style="text;html=1;strokeColor=none;fillColor=none;spacing=5;spacingTop=-20;whiteSpace=wrap;overflow=hidden;rounded=0;shadow=0;dashed=0;fontFamily=Helvetica;fontSize=12;fontColor=#FFFFFF;align=left;" vertex="1" parent="1">
          <mxGeometry x="520" y="1620" width="670" height="140" as="geometry" />
        </mxCell>
        <mxCell id="0U3BDuoGzoeypf5nkwV5-44" value="&lt;h1&gt;Heading&lt;/h1&gt;&lt;p&gt;L&lt;span&gt;orem ipsum dolor sit amet, consectetur adipisicing elit, sed do eiusmod tempor incididunt ut labore et dolore magna aliqua. Ut enim ad minim veniam, quis nostrud exercitation ullamco laboris nisi ut aliquip ex ea commodo consequat. Duis aute irure dolor in reprehenderit in voluptate velit esse cillum dolore eu fugiat nulla pariatur. Excepteur sint occaecat cupidatat non proident, sunt in culpa qui officia deserunt mollit anim id est laborum.&lt;/span&gt;&lt;/p&gt;" style="text;html=1;strokeColor=none;fillColor=none;spacing=5;spacingTop=-20;whiteSpace=wrap;overflow=hidden;rounded=0;shadow=0;dashed=0;fontFamily=Helvetica;fontSize=12;fontColor=#FFFFFF;align=left;" vertex="1" parent="1">
          <mxGeometry x="520" y="1870" width="670" height="140" as="geometry" />
        </mxCell>
        <mxCell id="0U3BDuoGzoeypf5nkwV5-45" value="" style="shadow=0;dashed=0;html=1;strokeColor=none;fillColor=#FFFFFF;labelPosition=center;verticalLabelPosition=bottom;verticalAlign=top;shape=mxgraph.office.users.users;rounded=0;fontFamily=Helvetica;fontSize=12;fontColor=#FFFFFF;align=left;" vertex="1" parent="1">
          <mxGeometry x="1294.9999999999995" y="880" width="92" height="100" as="geometry" />
        </mxCell>
        <mxCell id="0U3BDuoGzoeypf5nkwV5-46" value="" style="shadow=0;dashed=0;html=1;strokeColor=none;fillColor=#FFFFFF;labelPosition=center;verticalLabelPosition=bottom;verticalAlign=top;shape=mxgraph.office.security.token;rounded=0;fontFamily=Helvetica;fontSize=12;fontColor=#FFFFFF;align=left;" vertex="1" parent="1">
          <mxGeometry x="1298.9999999999993" y="1137" width="84" height="106" as="geometry" />
        </mxCell>
        <mxCell id="0U3BDuoGzoeypf5nkwV5-47" value="" style="shadow=0;dashed=0;html=1;strokeColor=none;fillColor=#FFFFFF;labelPosition=center;verticalLabelPosition=bottom;verticalAlign=top;shape=mxgraph.office.concepts.best_practices;rounded=0;fontFamily=Helvetica;fontSize=12;fontColor=#FFFFFF;align=left;" vertex="1" parent="1">
          <mxGeometry x="1292.5" y="1386" width="97" height="97" as="geometry" />
        </mxCell>
        <mxCell id="0U3BDuoGzoeypf5nkwV5-48" value="" style="shadow=0;dashed=0;html=1;strokeColor=none;fillColor=#FFFFFF;labelPosition=center;verticalLabelPosition=bottom;verticalAlign=top;shape=mxgraph.office.concepts.maintenance;rounded=0;fontFamily=Helvetica;fontSize=12;fontColor=#FFFFFF;align=left;" vertex="1" parent="1">
          <mxGeometry x="1306" y="1640" width="70" height="100" as="geometry" />
        </mxCell>
        <mxCell id="0U3BDuoGzoeypf5nkwV5-49" value="" style="shadow=0;dashed=0;html=1;strokeColor=none;fillColor=#FFFFFF;labelPosition=center;verticalLabelPosition=bottom;verticalAlign=top;shape=mxgraph.office.concepts.on_premises;rounded=0;fontFamily=Helvetica;fontSize=12;fontColor=#FFFFFF;align=left;" vertex="1" parent="1">
          <mxGeometry x="1321" y="1890" width="59" height="95" as="geometry" />
        </mxCell>
      </root>
    </mxGraphModel>
  </diagram>
</mxfile>
